<svg xmlns="http://www.w3.org/2000/svg" version="1.1" xmlns:xlink="http://www.w3.org/1999/xlink" xmlns:svgjs="http://svgjs.dev/svgjs" width="1440" height="560" preserveAspectRatio="none" viewBox="0 0 1440 560"><g mask="url(&quot;#SvgjsMask1331&quot;)" fill="none"><rect width="1440" height="560" x="0" y="0" fill="rgba(96, 59, 255, 1)"></rect><use xlink:href="#SvgjsG1336" transform="translate(0, 0)" fill="rgba(105, 70, 255, 1)"></use><use xlink:href="#SvgjsG1336" transform="translate(720, 0)" fill="rgba(105, 70, 255, 1)"></use></g><defs><mask id="SvgjsMask1331"><rect width="1440" height="560" fill="#ffffff"></rect></mask><g id="SvgjsG1333"><path d="M6.686 14.724L0 8.038 6.686 1.36h4.408L6.01 6.444H16v3.232H6.046l5.057 5.057z"></path></g><g id="SvgjsG1332"><path d="M10.088 2.124L2.616 9.596 0.54 7.52 8.016 0.054z"></path><path d="M6.32 3.208h3.368V15.96H6.32z"></path><path d="M8 0.04l7.474 7.472-2.07 2.072-7.474-7.47z"></path></g><g id="SvgjsG1335"><path d="M1.369 6.678L8.056 0l6.686 6.678V11.094L9.659 6.01V16H6.418V6.046L1.36 11.094z"></path></g><g id="SvgjsG1334"><path d="M13.88 10.08L6.414 2.608 8.484 0.536l7.472 7.47z"></path><path d="M0.048 6.314H12.8V9.68H0.046z"></path><path d="M15.966 7.994L8.496 15.468 6.424 13.4l7.47-7.48z"></path></g><g id="SvgjsG1336"><use xlink:href="#SvgjsG1332" transform="translate(0, 0) scale(2)" fill="rgba(105, 70, 255, 1)"></use><use xlink:href="#SvgjsG1332" transform="translate(0, 72) scale(2)" fill="rgba(105, 70, 255, 1)"></use><use xlink:href="#SvgjsG1332" transform="translate(0, 144) scale(2)" fill="rgba(105, 70, 255, 1)"></use><use xlink:href="#SvgjsG1333" transform="translate(0, 216) scale(2)" fill="rgba(105, 70, 255, 1)"></use><use xlink:href="#SvgjsG1332" transform="translate(0, 288) scale(2)" fill="rgba(105, 70, 255, 1)"></use><use xlink:href="#SvgjsG1334" transform="translate(0, 360) scale(2)" fill="rgba(105, 70, 255, 1)"></use><use xlink:href="#SvgjsG1332" transform="translate(0, 432) scale(2)" fill="rgba(105, 70, 255, 1)"></use><use xlink:href="#SvgjsG1333" transform="translate(0, 504) scale(2)" fill="rgba(105, 70, 255, 1)"></use><use xlink:href="#SvgjsG1333" transform="translate(72, 0) scale(2)" fill="rgba(105, 70, 255, 1)"></use><use xlink:href="#SvgjsG1335" transform="translate(72, 72) scale(2)" fill="rgba(105, 70, 255, 1)"></use><use xlink:href="#SvgjsG1332" transform="translate(72, 144) scale(2)" fill="rgba(105, 70, 255, 1)"></use><use xlink:href="#SvgjsG1333" transform="translate(72, 216) scale(2)" fill="rgba(105, 70, 255, 1)"></use><use xlink:href="#SvgjsG1333" transform="translate(72, 288) scale(2)" fill="rgba(105, 70, 255, 1)"></use><use xlink:href="#SvgjsG1332" transform="translate(72, 360) scale(2)" fill="rgba(105, 70, 255, 1)"></use><use xlink:href="#SvgjsG1334" transform="translate(72, 432) scale(2)" fill="rgba(105, 70, 255, 1)"></use><use xlink:href="#SvgjsG1332" transform="translate(72, 504) scale(2)" fill="rgba(105, 70, 255, 1)"></use><use xlink:href="#SvgjsG1332" transform="translate(144, 0) scale(2)" fill="rgba(105, 70, 255, 1)"></use><use xlink:href="#SvgjsG1333" transform="translate(144, 72) scale(2)" fill="rgba(105, 70, 255, 1)"></use><use xlink:href="#SvgjsG1335" transform="translate(144, 144) scale(2)" fill="rgba(105, 70, 255, 1)"></use><use xlink:href="#SvgjsG1332" transform="translate(144, 216) scale(2)" fill="rgba(105, 70, 255, 1)"></use><use xlink:href="#SvgjsG1334" transform="translate(144, 288) scale(2)" fill="rgba(105, 70, 255, 1)"></use><use xlink:href="#SvgjsG1335" transform="translate(144, 360) scale(2)" fill="rgba(105, 70, 255, 1)"></use><use xlink:href="#SvgjsG1333" transform="translate(144, 432) scale(2)" fill="rgba(105, 70, 255, 1)"></use><use xlink:href="#SvgjsG1334" transform="translate(144, 504) scale(2)" fill="rgba(105, 70, 255, 1)"></use><use xlink:href="#SvgjsG1334" transform="translate(216, 0) scale(2)" fill="rgba(105, 70, 255, 1)"></use><use xlink:href="#SvgjsG1332" transform="translate(216, 72) scale(2)" fill="rgba(105, 70, 255, 1)"></use><use xlink:href="#SvgjsG1332" transform="translate(216, 144) scale(2)" fill="rgba(105, 70, 255, 1)"></use><use xlink:href="#SvgjsG1335" transform="translate(216, 216) scale(2)" fill="rgba(105, 70, 255, 1)"></use><use xlink:href="#SvgjsG1334" transform="translate(216, 288) scale(2)" fill="rgba(105, 70, 255, 1)"></use><use xlink:href="#SvgjsG1333" transform="translate(216, 360) scale(2)" fill="rgba(105, 70, 255, 1)"></use><use xlink:href="#SvgjsG1335" transform="translate(216, 432) scale(2)" fill="rgba(105, 70, 255, 1)"></use><use xlink:href="#SvgjsG1333" transform="translate(216, 504) scale(2)" fill="rgba(105, 70, 255, 1)"></use><use xlink:href="#SvgjsG1332" transform="translate(288, 0) scale(2)" fill="rgba(105, 70, 255, 1)"></use><use xlink:href="#SvgjsG1332" transform="translate(288, 72) scale(2)" fill="rgba(105, 70, 255, 1)"></use><use xlink:href="#SvgjsG1333" transform="translate(288, 144) scale(2)" fill="rgba(105, 70, 255, 1)"></use><use xlink:href="#SvgjsG1334" transform="translate(288, 216) scale(2)" fill="rgba(105, 70, 255, 1)"></use><use xlink:href="#SvgjsG1335" transform="translate(288, 288) scale(2)" fill="rgba(105, 70, 255, 1)"></use><use xlink:href="#SvgjsG1333" transform="translate(288, 360) scale(2)" fill="rgba(105, 70, 255, 1)"></use><use xlink:href="#SvgjsG1335" transform="translate(288, 432) scale(2)" fill="rgba(105, 70, 255, 1)"></use><use xlink:href="#SvgjsG1333" transform="translate(288, 504) scale(2)" fill="rgba(105, 70, 255, 1)"></use><use xlink:href="#SvgjsG1332" transform="translate(360, 0) scale(2)" fill="rgba(105, 70, 255, 1)"></use><use xlink:href="#SvgjsG1334" transform="translate(360, 72) scale(2)" fill="rgba(105, 70, 255, 1)"></use><use xlink:href="#SvgjsG1334" transform="translate(360, 144) scale(2)" fill="rgba(105, 70, 255, 1)"></use><use xlink:href="#SvgjsG1335" transform="translate(360, 216) scale(2)" fill="rgba(105, 70, 255, 1)"></use><use xlink:href="#SvgjsG1332" transform="translate(360, 288) scale(2)" fill="rgba(105, 70, 255, 1)"></use><use xlink:href="#SvgjsG1333" transform="translate(360, 360) scale(2)" fill="rgba(105, 70, 255, 1)"></use><use xlink:href="#SvgjsG1335" transform="translate(360, 432) scale(2)" fill="rgba(105, 70, 255, 1)"></use><use xlink:href="#SvgjsG1332" transform="translate(360, 504) scale(2)" fill="rgba(105, 70, 255, 1)"></use><use xlink:href="#SvgjsG1334" transform="translate(432, 0) scale(2)" fill="rgba(105, 70, 255, 1)"></use><use xlink:href="#SvgjsG1335" transform="translate(432, 72) scale(2)" fill="rgba(105, 70, 255, 1)"></use><use xlink:href="#SvgjsG1334" transform="translate(432, 144) scale(2)" fill="rgba(105, 70, 255, 1)"></use><use xlink:href="#SvgjsG1332" transform="translate(432, 216) scale(2)" fill="rgba(105, 70, 255, 1)"></use><use xlink:href="#SvgjsG1335" transform="translate(432, 288) scale(2)" fill="rgba(105, 70, 255, 1)"></use><use xlink:href="#SvgjsG1332" transform="translate(432, 360) scale(2)" fill="rgba(105, 70, 255, 1)"></use><use xlink:href="#SvgjsG1335" transform="translate(432, 432) scale(2)" fill="rgba(105, 70, 255, 1)"></use><use xlink:href="#SvgjsG1335" transform="translate(432, 504) scale(2)" fill="rgba(105, 70, 255, 1)"></use><use xlink:href="#SvgjsG1333" transform="translate(504, 0) scale(2)" fill="rgba(105, 70, 255, 1)"></use><use xlink:href="#SvgjsG1335" transform="translate(504, 72) scale(2)" fill="rgba(105, 70, 255, 1)"></use><use xlink:href="#SvgjsG1333" transform="translate(504, 144) scale(2)" fill="rgba(105, 70, 255, 1)"></use><use xlink:href="#SvgjsG1332" transform="translate(504, 216) scale(2)" fill="rgba(105, 70, 255, 1)"></use><use xlink:href="#SvgjsG1333" transform="translate(504, 288) scale(2)" fill="rgba(105, 70, 255, 1)"></use><use xlink:href="#SvgjsG1334" transform="translate(504, 360) scale(2)" fill="rgba(105, 70, 255, 1)"></use><use xlink:href="#SvgjsG1333" transform="translate(504, 432) scale(2)" fill="rgba(105, 70, 255, 1)"></use><use xlink:href="#SvgjsG1333" transform="translate(504, 504) scale(2)" fill="rgba(105, 70, 255, 1)"></use><use xlink:href="#SvgjsG1335" transform="translate(576, 0) scale(2)" fill="rgba(105, 70, 255, 1)"></use><use xlink:href="#SvgjsG1332" transform="translate(576, 72) scale(2)" fill="rgba(105, 70, 255, 1)"></use><use xlink:href="#SvgjsG1335" transform="translate(576, 144) scale(2)" fill="rgba(105, 70, 255, 1)"></use><use xlink:href="#SvgjsG1333" transform="translate(576, 216) scale(2)" fill="rgba(105, 70, 255, 1)"></use><use xlink:href="#SvgjsG1334" transform="translate(576, 288) scale(2)" fill="rgba(105, 70, 255, 1)"></use><use xlink:href="#SvgjsG1333" transform="translate(576, 360) scale(2)" fill="rgba(105, 70, 255, 1)"></use><use xlink:href="#SvgjsG1332" transform="translate(576, 432) scale(2)" fill="rgba(105, 70, 255, 1)"></use><use xlink:href="#SvgjsG1332" transform="translate(576, 504) scale(2)" fill="rgba(105, 70, 255, 1)"></use><use xlink:href="#SvgjsG1334" transform="translate(648, 0) scale(2)" fill="rgba(105, 70, 255, 1)"></use><use xlink:href="#SvgjsG1333" transform="translate(648, 72) scale(2)" fill="rgba(105, 70, 255, 1)"></use><use xlink:href="#SvgjsG1334" transform="translate(648, 144) scale(2)" fill="rgba(105, 70, 255, 1)"></use><use xlink:href="#SvgjsG1332" transform="translate(648, 216) scale(2)" fill="rgba(105, 70, 255, 1)"></use><use xlink:href="#SvgjsG1335" transform="translate(648, 288) scale(2)" fill="rgba(105, 70, 255, 1)"></use><use xlink:href="#SvgjsG1332" transform="translate(648, 360) scale(2)" fill="rgba(105, 70, 255, 1)"></use><use xlink:href="#SvgjsG1333" transform="translate(648, 432) scale(2)" fill="rgba(105, 70, 255, 1)"></use><use xlink:href="#SvgjsG1333" transform="translate(648, 504) scale(2)" fill="rgba(105, 70, 255, 1)"></use></g></defs></svg>